<?xml version="1.0" encoding="UTF-8"?>
<svg width="1036px" height="628px" viewBox="0 0 1036 628" version="1.1" xmlns="http://www.w3.org/2000/svg" xmlns:xlink="http://www.w3.org/1999/xlink">
    <title>love-illustration</title>
    <g id="Page-1" stroke="none" stroke-width="1" fill="none" fill-rule="evenodd">
        <g id="love-illustration" transform="translate(1.000000, 0.000000)">
            <path d="M685.99999,214.64856 L335.1629,0 L281.77484,87.26136 C311.757601,106.735944 320.778753,146.545334 302.120022,177.0425 C283.461291,207.539666 243.909727,217.631369 212.92035,199.80207 L195.59546,228.11914 L343.47999,228.11914 L343.47999,407.19245 L703.7895,627.63645 L779.2005,504.37918 L685.99999,504.37918 L685.99999,214.64856 Z" id="Path" fill="#F2F2F2" fill-rule="nonzero"></path>
            <ellipse id="Oval" fill="#293462" fill-rule="nonzero" cx="513.42442" cy="470.26294" rx="63.53704" ry="9.82156"></ellipse>
            <path d="M515.47999,383.27921 L579.49781,310.04486 C599.193915,289.909905 598.838158,257.620452 578.703204,237.924346 C558.56825,218.22824 526.278796,218.583996 506.58269,238.71895 C493.557658,225.977803 474.724712,221.153269 457.178039,226.062704 C439.631366,230.972139 426.036724,244.869683 421.515084,262.520265 C416.993443,280.170847 422.231748,298.892923 435.25678,311.63407 L506.47999,383.27921" id="Path" fill="#F24C4C" fill-rule="nonzero"></path>
            <rect id="Rectangle" stroke="#3F3D56" stroke-width="2" x="0" y="227.11914" width="345.47998" height="313.26001"></rect>
            <rect id="Rectangle" stroke="#3F3D56" stroke-width="2" x="688" y="190.11914" width="345.47998" height="313.26001"></rect>
            <circle id="Oval" fill="#F7D716" fill-rule="nonzero" cx="248.47998" cy="144.27917" r="43"></circle>
            <path d="M350.47999,378.27921 C350.47999,378.27921 404.47999,359.27921 427.47999,385.27921 C450.47999,411.27921 514.47999,370.27921 514.47999,370.27921" id="Path" stroke="#3F3D56" stroke-width="2"></path>
            <path d="M789.47999,385.27921 C789.47999,385.27921 779.47999,361.27921 711.47999,383.27921 C643.47999,405.27921 547.47999,404.27921 523.47999,370.27921 L587.49781,297.04486 C607.193916,276.909906 606.838159,244.620451 586.703205,224.924345 C566.568251,205.228239 534.278796,205.583996 514.58269,225.71895 C494.447736,206.022844 462.158281,206.378601 442.462175,226.513555 C422.766069,246.648509 423.121826,278.937964 443.25678,298.63407 L514.47999,370.27921" id="Path" stroke="#3F3D56" stroke-width="2"></path>
            <ellipse id="Oval" stroke="#3F3D56" stroke-width="2" cx="521.53554" cy="462.10074" rx="63.53704" ry="9.82156"></ellipse>
            <ellipse id="Oval" fill="#293462" fill-rule="nonzero" cx="514.77628" cy="531.19233" rx="50.01852" ry="7.73187"></ellipse>
            <ellipse id="Oval" fill="#293462" fill-rule="nonzero" cx="514.77628" cy="590.05494" rx="33.7963" ry="5.22424"></ellipse>
            <ellipse id="Oval" stroke="#3F3D56" stroke-width="2" cx="521.53554" cy="524.30398" rx="50.01852" ry="7.73187"></ellipse>
            <ellipse id="Oval" stroke="#3F3D56" stroke-width="2" cx="521.53554" cy="584.8703" rx="33.7963" ry="5.22424"></ellipse>
            <circle id="Oval" fill="#2F2E41" fill-rule="nonzero" cx="201.5984" cy="357.48372" r="33.25222"></circle>
            <path d="M185.72504,374.28302 C185.72504,374.28302 174.89421,398.26559 171.79968,399.03922 C168.70515,399.81285 197.32951,413.73822 197.32951,413.73822 C197.32951,413.73822 202.74493,384.34022 205.06582,382.79297 C207.38671,381.24572 185.72504,374.28302 185.72504,374.28302 Z" id="Path" fill="#9F616A" fill-rule="nonzero"></path>
            <circle id="Oval" fill="#9F616A" fill-rule="nonzero" cx="201.9713" cy="369.64123" r="22.4353"></circle>
            <path d="M220.75999,540.37915 L125.35999,540.37915 C128.54999,528.78915 131.95999,517.29915 133.87999,510.91915 C134.84999,507.71915 135.43999,505.7991 135.43999,505.7991 C135.43999,505.7991 207.38999,521.2691 208.92999,522.0491 C209.796198,522.973451 210.563679,523.985588 211.21999,525.0691 C213.46999,528.36914 217.05999,534.03921 220.75999,540.37915 Z" id="Path" fill="#2F2E41" fill-rule="nonzero"></path>
            <path d="M102.17288,321.6761 L78.96394,286.0891 C78.96394,286.0891 84.70333,248.75795 76.96702,255.72063 C69.23071,262.68331 66.78247,290.80075 66.78247,290.80075 L93.66293,331.73334 L102.17288,321.6761 Z" id="Path" fill="#9F616A" fill-rule="nonzero"></path>
            <path d="M312.60056,386.66112 L333.48856,385.11386 C333.48856,385.11386 358.24476,358.8104 359.79202,367.32034 C361.33928,375.83028 339.67761,394.39743 339.67761,394.39743 L311.05326,397.49195 L312.60056,386.66112 Z" id="Path" fill="#9F616A" fill-rule="nonzero"></path>
            <path d="M160.19521,394.39743 L160.19521,386.66112 C160.19521,386.66112 140.0808,373.50939 140.85444,371.18849 C141.62808,368.86759 139.30717,367.32034 139.30717,367.32034 C139.30717,367.32034 136.98628,364.22581 136.98628,363.45218 C136.98628,362.67855 133.89175,361.90492 133.89175,361.90492 L114.55099,339.46962 C114.55099,339.46962 103.72015,317.80794 101.39926,318.58157 C99.07837,319.3552 86.70026,323.99699 88.24753,327.09157 C89.7948,330.18615 133.11813,396.71837 133.11813,396.71837 C133.11813,396.71837 135.43903,411.41737 139.30718,411.41737 C143.17533,411.41737 160.19521,394.39743 160.19521,394.39743 Z" id="Path" fill="#3F3D56" fill-rule="nonzero"></path>
            <path d="M212.0285,403.681 C212.0285,403.681 229.04839,402.90737 229.82202,403.681 C230.59565,404.45463 241.42649,403.681 241.42649,403.681 C241.42649,403.681 270.82449,396.71832 273.14537,394.39743 C275.46625,392.07654 314.14782,382.01933 315.69508,386.66112 C317.24234,391.30291 321.1105,400.58648 317.24234,402.13374 C313.37418,403.681 208.93399,429.98446 208.93399,429.98446 L212.0285,403.681 Z" id="Path" fill="#3F3D56" fill-rule="nonzero"></path>
            <circle id="Oval" fill="#2F2E41" fill-rule="nonzero" cx="189.9663" cy="322.48602" r="13.75954"></circle>
            <path d="M171.62024,315.03294 C171.620676,307.988715 176.940666,302.08223 183.9465,301.34779 C183.470334,301.298354 182.991935,301.2734 182.51321,301.2734 C177.5974,301.2734 173.055003,303.895953 170.597098,308.15317 C168.139193,312.410386 168.139193,317.655494 170.597098,321.91271 C173.055003,326.169927 177.5974,328.79248 182.51321,328.79248 C182.991935,328.79248 183.470335,328.767531 183.9465,328.71809 C176.940666,327.98365 171.620676,322.077165 171.62024,315.03294 L171.62024,315.03294 Z" id="Path" fill="#2F2E41" fill-rule="nonzero"></path>
            <ellipse id="Oval" fill="#2F2E41" fill-rule="nonzero" cx="205.46656" cy="350.43337" rx="22.93257" ry="13.75954"></ellipse>
            <path d="M179.14918,386.2743 C179.14918,386.2743 172.1865,391.68972 170.63924,392.4633 C169.09198,393.23688 159.8084,385.50062 158.26114,385.50062 C156.71388,385.50062 136.59946,408.70956 136.59946,408.70956 C136.59946,408.70956 140.33755,413.01525 136.59946,435.01302 C135.19757,443.26285 132.41623,478.53369 132.41623,483.17548 C132.41623,487.81727 117.25868,499.22441 131.18405,509.28161 C145.10942,519.33881 211.64169,530.16961 212.41532,523.98061 C213.18895,517.79161 204.67901,501.54531 208.54716,493.809 C212.41531,486.07269 212.41532,457.44833 212.41532,457.44833 L217.05711,427.27672 L220.92526,403.29415 C220.92526,403.29415 202.74493,398.26555 201.19767,398.26555 C199.65041,398.26555 192.68772,409.09642 179.14918,386.2743 Z" id="Path" fill="#3F3D56" fill-rule="nonzero"></path>
            <rect id="Rectangle" fill="#6415FF" fill-rule="nonzero" transform="translate(868.767102, 322.868635) rotate(-2.220710) translate(-868.767102, -322.868635) " x="860.845787" y="312.684085" width="15.84263" height="20.3691"></rect>
            <path d="M804.87549,383.66826 C804.87549,383.66826 782.95243,373.19373 783.30323,382.23986 C783.65403,391.28599 805.40168,397.23746 805.40168,397.23746 L804.87549,383.66826 Z" id="Path" fill="#FFB9B9" fill-rule="nonzero"></path>
            <path d="M906.81999,503.37915 L802.82999,503.37915 C804.99999,493.19915 809.12999,480.91915 812.35999,472.06915 C814.91999,465.06915 816.89999,460.20915 816.89999,460.20915 C828.70999,446.88915 845.84999,446.54915 861.92999,449.83915 C863.84999,450.22915 865.75999,450.66915 867.63999,451.15915 C867.85999,451.20915 868.07999,451.26915 868.29999,451.32915 C872.05999,452.29915 875.70999,453.41915 879.15999,454.53915 C885.10999,456.47915 890.47999,458.43915 894.81999,459.76915 C897.002107,460.490985 899.244355,461.016407 901.51999,461.33915 C902.018123,461.392161 902.519214,461.412205 903.01999,461.39915 C904.73999,461.32915 905.92999,463.17915 906.69999,466.40915 C908.43999,473.69921 908.03999,488.05915 906.81999,503.37915 Z" id="Path" fill="#2F2E41" fill-rule="nonzero"></path>
            <path d="M886.30662,293.31055 C886.30662,293.31055 898.35972,312.09509 903.05818,316.44276 C907.75664,320.79043 894.53824,330.36276 894.53824,330.36276 L870.87984,333.54513 C870.87984,333.54513 871.17747,312.01671 869.95901,309.79903 C868.74055,307.58135 886.30662,293.31055 886.30662,293.31055 Z" id="Path" fill="#FFB9B9" fill-rule="nonzero"></path>
            <path d="M865.74288,317.88978 C865.74288,317.88978 870.61674,326.76052 875.13981,326.58512 C879.66288,326.40972 903.05818,316.44276 904.0574,313.00661 C905.05662,309.57046 911.80668,337.62038 911.80668,337.62038 L854.56015,438.36494 L840.59631,428.71421 L847.36231,369.56354 L852.91914,337.63898 L865.74288,317.88978 Z" id="Path" fill="#EC9B3B" fill-rule="nonzero"></path>
            <path d="M906.16899,408.05197 C903.804512,412.644344 902.598832,417.745226 902.65699,422.91023 C902.66576,423.1364 902.67453,423.36249 902.69461,423.58823 C903.23634,434.05388 907.09177,446.15768 908.47496,454.95994 C909.47861,461.27414 909.19296,465.88303 905.49787,466.96629 C896.53943,469.57862 906.80403,471.44551 872.14487,482.98173 C837.48571,494.51795 831.43727,484.5603 831.34957,482.29873 C831.26187,480.03716 836.25797,462.85645 835.08336,461.76953 C833.90875,460.68261 818.64804,475.99647 814.03728,473.91033 C809.42652,471.82419 813.51109,460.34113 813.51109,460.34113 C813.51109,460.34113 823.89793,436.15654 823.67868,430.50271 C823.45943,424.84888 839.41241,398.1835 839.41241,398.1835 L850.26299,327.5498 C850.26299,327.5498 854.43527,318.32827 860.04525,316.97826 C863.579393,316.243897 867.260606,316.913423 870.30985,318.84515 L860.92223,339.59359 L851.01773,376.21659 L852.67473,389.74194 C852.67473,389.74194 864.19233,365.5135 871.75691,356.16042 C879.32149,346.80734 895.44985,324.66504 895.44985,324.66504 C895.44985,324.66504 899.21526,311.95993 896.37275,308.16314 C893.5298,304.35509 908.22975,303.78505 914.49749,319.39654 C917.81941,327.67061 923.21274,340.00922 926.59135,351.49733 C929.60201,361.67467 931.02414,371.18888 928.04146,376.62715 C923.4826,384.93507 912.01515,395.85508 906.16899,408.05197 Z" id="Path" fill="#575A89" fill-rule="nonzero"></path>
            <path d="M928.04137,376.62721 C923.4826,384.9351 912.01515,395.85511 906.16894,408.052 C904.64194,402.55076 902.77917,396.85877 902.77917,396.85877 C902.77917,396.85877 895.63447,358.63195 916.76824,348.75269 C920.269972,348.414105 923.772202,349.392683 926.59124,351.49739 C929.60192,361.6747 931.02405,371.18891 928.04137,376.62721 Z" id="Path" fill="#000000" fill-rule="nonzero" opacity="0.1"></path>
            <path d="M844.14538,374.21821 L826.22851,379.44286 L801.35165,380.40754 L798.79248,402.02365 L839.67548,404.96815 C839.67548,404.96815 849.88692,376.26047 844.14538,374.21821 Z" id="Path" fill="#575A89" fill-rule="nonzero"></path>
            <path d="M873.36133,446.89834 C873.36133,446.89834 849.39214,450.87506 854.86285,458.08803 C860.33356,465.301 881.56739,457.7178 881.56739,457.7178 L873.36133,446.89834 Z" id="Path" fill="#FFB9B9" fill-rule="nonzero"></path>
            <path d="M902.69455,423.58821 C903.23628,434.05386 907.09171,446.15766 908.4749,454.95992 C900.83921,462.18671 893.57812,468.56092 890.84169,468.66708 C885.18786,468.88632 876.09787,468.10635 872.74942,469.36866 C869.40097,470.63097 867.43707,449.19026 867.43707,449.19026 C867.43707,449.19026 869.43551,442.31796 878.35007,438.57486 C884.36725,436.0426 895.9012,429.17426 902.69455,423.58821 Z" id="Path" fill="#000000" fill-rule="nonzero" opacity="0.1"></path>
            <path d="M916.50515,341.96806 C916.50515,341.96806 935.64048,338.96106 934.60672,370.71025 C933.57296,402.45944 936.62378,422.72552 928.92766,428.6863 C921.23154,434.64708 896.23243,461.66321 890.57859,461.88249 C884.92475,462.10177 875.83478,461.32176 872.48633,462.58407 C869.13788,463.84638 867.17398,442.40567 867.17398,442.40567 C867.17398,442.40567 869.17242,435.53337 878.08698,431.79027 C887.00154,428.04717 908.0038,414.77562 907.8284,410.25255 C907.653,405.72948 902.51605,390.07414 902.51605,390.07414 C902.51605,390.07414 895.37137,351.84732 916.50515,341.96806 Z" id="Path" fill="#575A89" fill-rule="nonzero"></path>
            <circle id="Oval" fill="#FFB9B9" fill-rule="nonzero" cx="869.43282" cy="296.22981" r="24.89557"></circle>
            <path d="M852.66999,260.54721 C852.069514,261.064581 851.350423,261.425441 850.57674,261.59766 C849.768224,261.741784 848.995005,261.206173 848.84574,260.39859 C848.398216,261.640824 847.566184,262.707964 846.47058,263.4449 C845.30765,264.05102 843.50942,263.54277 843.3418,262.24213 C843.172009,263.22968 842.735112,264.151907 842.07848,264.90882 C841.366032,265.66239 840.179749,265.702042 839.41857,264.99773 C839.92786,267.78091 839.61352,270.64312 839.77345,273.46798 C839.93338,276.29284 840.68666,279.28762 842.82089,281.14516 C845.93344,283.85416 850.61395,283.18559 854.70825,282.67235 C855.327403,282.542417 855.969836,282.577562 856.57112,282.77426 C858.10412,283.42739 858.03461,285.56146 858.05528,287.2277 C858.313494,293.26478 862.894163,298.232473 868.89054,298.97844 C870.515648,299.229278 872.173858,298.824581 873.5007,297.8533 C874.66317,296.86797 875.25696,295.26201 876.58901,294.52182 C878.7558,293.31782 881.3837,295.07374 882.96791,296.98029 C884.55212,298.88684 886.11346,301.2321 888.56761,301.5811 C891.81338,302.04267 894.28551,298.73487 895.49838,295.6891 C898.878958,287.064757 898.6328,277.440589 894.81576,269.00034 C888.0385,254.22697 864.88726,251.89028 852.66999,260.54721 Z" id="Path" fill="#2F2E41" fill-rule="nonzero"></path>
        </g>
    </g>
</svg>